# ProBuilder 4.2.3
# https://unity3d.com/unity/features/worldbuilding/probuilder
# 17/7/2021 7:51:51 p. m.

mtllib ./CabezaRobot1.mtl
o CabezaRobot1

g Cube
v 0 1 -0.1013587
v -1.087176 1 -0.1013587
v -1.087176 0.9921298 -0.9763117
v 0 0.9921298 -0.9763117
v -1.160072 1 -0.1013587
v -1.160071 0.9921298 -0.9763117
v 0 0.01386112 -0.8374188
v -0.8694077 0.01386112 -0.8374188
v -0.8694077 0 -0.1013587
v 0 0 -0.1013587
v -0.871067 0.01386112 -0.8374188
v -0.871067 0 -0.1013587
v -1.225638 0.9286991 -1.023689
v -1.22581 0.9294883 -1.023099
v -1.22581 0.9218143 -0.1013587
v -1.225638 0.9208292 -0.1013587
v 0 0.999 -0.1013587
v -1.08704 0.9986218 -0.1013587
v -1.07936 0.9286991 -1.023689
v 0 0.9286991 -1.023689
v -1.028262 0.1257972 -0.1013587
v -1.028262 0.1378428 -0.8587139
v -1.028481 0.1388044 -0.8588791
v -1.028481 0.1267729 -0.1013587
v 0 0.9208292 -0.3091359
v 0 0.1267729 -0.3091359
v -0.8994751 0.1267729 -0.3091359
v -1.07936 0.9208292 -0.3091359
v -0.8994751 0.1388044 -0.8588791
v 0 0.1388044 -0.8588791
v -1.07936 0.9208292 -0.1795295
v 0 0.9208292 -0.1795295
v -1.157531 0.9208292 -0.1013587
v -1.128693 0.8977934 -0.1013587
v -0.9847198 0.1267729 -0.1013587
v -1.075407 0.9033777 -0.1616358
v -0.8994751 0.1267729 -0.1866033
v -1.096334 0.9208368 -0.1208043
v -0.8798029 0.0438292 -0.1013587
v -0.8667301 0.06036517 -0.1013587
v 0 0.04211948 -0.1013587
v -0.8740894 0.1267729 -0.1612177
v 0 0.1267729 -0.1860121
v -0.8941551 0.1061407 -0.1225632
v 1.087176 1 -0.1013587
v 1.087176 0.9921298 -0.9763117
v 1.160072 1 -0.1013587
v 1.160071 0.9921298 -0.9763117
v 0.8694077 0.01386112 -0.8374188
v 0.8694077 0 -0.1013587
v 0.871067 0.01386112 -0.8374188
v 0.871067 0 -0.1013587
v 1.225638 0.9286991 -1.023689
v 1.22581 0.9294883 -1.023099
v 1.22581 0.9218143 -0.1013587
v 1.225638 0.9208292 -0.1013587
v 0 0.999 -0.1013587
v 1.08704 0.9986218 -0.1013587
v 1.07936 0.9286991 -1.023689
v 1.028262 0.1257972 -0.1013587
v 1.028262 0.1378428 -0.8587139
v 1.028481 0.1388044 -0.8588791
v 1.028481 0.1267729 -0.1013587
v 0.8994751 0.1267729 -0.3091359
v 1.07936 0.9208292 -0.3091359
v 0.8994751 0.1388044 -0.8588791
v 1.07936 0.9208292 -0.1795294
v 1.157531 0.9208292 -0.1013587
v 1.128693 0.8977934 -0.1013587
v 0.9847193 0.1267729 -0.1013587
v 1.075406 0.9033777 -0.1616358
v 0.8994751 0.1267729 -0.1866033
v 1.096334 0.9208368 -0.1208043
v 0.8798027 0.0438292 -0.1013587
v 0.8667297 0.06036517 -0.1013587
v 0.8740892 0.1267729 -0.1612177
v 0.8941555 0.1061407 -0.1225632

vt 0 -0.09235992
vt 1.087176 -0.09235992
vt 1.087176 -0.9673483
vt 0 -0.9673483
vt 1.087176 -0.1013587
vt 1.160072 -0.1013587
vt 1.160072 -1
vt 1.087176 -1
vt 0 -0.8375313
vt -0.8694077 -0.8375313
vt -0.8694077 -0.1013407
vt 0 -0.1013407
vt -0.8694077 -1
vt -0.871067 -1
vt -0.871067 -0.1013587
vt -1 1.158414
vt -1 1.15935
vt -0.1013587 1.15935
vt -0.1013587 1.158414
vt 0 1
vt 0 0.999
vt -1.08704 0.9986218
vt -1.087176 1
vt 1.087176 0.9097413
vt 1.07936 0.8426796
vt -1.227663E-07 0.8426796
vt -1.170846E-07 0.9097413
vt -0.1013587 0.3590351
vt -1 0.3590351
vt -1 0.360027
vt -0.1013587 0.360027
vt -0.8547816 0.3853186
vt -1.018806 1.199605
vt -0.09648293 1.19108
vt -0.09726711 0.3729156
vt 0 0.9208292
vt 0 0.1267729
vt -0.8994751 0.1267729
vt -1.07936 0.9208292
vt 1.225638 0.8426796
vt 1.028481 0.0687402
vt 0.899475 0.0687402
vt -1.030014E-07 0.06874021
vt 0.8694075 -0.0540528
vt -1.004278E-07 -0.05405279
vt -1.07936 -0.1795295
vt 0 -0.1795295
vt -1.07936 -0.3091359
vt 0 -0.3091359
vt -0.09258167 0.01839232
vt -0.9675097 0.008110049
vt -0.09208446 -0.08375585
vt -1.013798 -0.0823685
vt 1.160071 0.9097413
vt 1.22581 0.843514
vt -0.6933541 -0.8295193
vt -0.6847874 -0.09337845
vt -0.8935581 -0.8508167
vt -0.8861136 -0.09340425
vt 1.028262 0.06779515
vt 0.8710669 -0.0540528
vt 3.526361E-05 0.6347284
vt -1.087005 0.6341935
vt 6.245996E-05 0.5241781
vt -1.079298 0.5239126
vt -1.028481 0.1267729
vt -1.225638 0.9208292
vt -1.157531 0.9208292
vt -1.128693 0.8977934
vt -0.9847198 0.1267729
vt 0.1616358 1.118654
vt 0.1795296 1.136548
vt 0.309136 1.136548
vt 0.309136 0.3223708
vt 0.1866034 0.3223708
vt -1.22581 0.9218143
vt -1.160072 1
vt -0.127268 0.7087204
vt -0.1883971 0.7087281
vt -0.204497 0.7878218
vt -1.005287 0.8503194
vt -1.008255 0.7696584
vt -1.072467 0.7696505
vt -0.6803769 1.01379
vt -0.5839861 0.2353882
vt -0.5999272 1.019428
vt -0.463594 0.2345298
vt -1.00829 1.019524
vt -1.045017 0.9948806
vt -1.072502 1.019516
vt -0.1883039 1.310664
vt -0.1271748 1.310655
vt -0.1432676 1.291126
vt 0 0
vt -0.8694077 0
vt -0.8798029 0.0438292
vt -0.8667301 0.06036517
vt 0 0.04211948
vt 0.8740894 -0.1612177
vt 0.8994751 -0.1866033
vt 0.8994751 -0.3091359
vt 0 -0.1860121
vt -0.871067 0
vt -1.028262 0.1257972
vt -0.6361061 0.3320414
vt -0.555712 0.338422
vt -0.6005678 0.3583708
vt 0.8982853 -0.1424511
vt 0.8873036 -0.07585884
vt 0.9799917 -0.05380925
vt -0.9037476 0.2663806
vt -0.8110918 0.2441955
vt -0.8040836 0.1771937
vt -0.864646 0.1237745
vt 0.001927454 0.09918672
vt -0.8708656 0.2132651
vt 0.003537238 0.2187404
vt -0.8870279 0.06259382
vt -0.8543048 0.01540945
vt -0.8667067 -0.00163544
vt 0.8084112 -0.2411149
vt 0.8065908 -0.3085821
vt 0.7826405 -0.2818379
vt 0.6856311 0.2372022
vt 0.7354413 0.1625952
vt 0.7366084 0.2107733
vt -1.087176 -0.09235992
vt -1.087176 -0.9673483
vt 0.8694077 -0.8375313
vt 0.8694077 -0.1013407
vt -1.087176 0.9097413
vt -1.07936 0.8426796
vt 0.7317383 -0.6382795
vt 1.204116 -1.074054
vt 1.597102 -0.3774696
vt 1.050896 -0.06409502
vt 0.8994751 0.1267729
vt 1.07936 0.9208292
vt -1.225638 0.8426796
vt -1.028481 0.06874019
vt -0.8994751 0.06874019
vt -0.8694077 -0.05405279
vt -0.1452726 -0.1105192
vt -0.1507188 -0.9854223
vt -0.2468345 -0.1104535
vt -0.2415235 -1.03221
vt -1.222082 0.8335992
vt -1.076864 0.8456029
vt -1.090677 0.9181943
vt -1.163044 0.9122125
vt -1.222327 0.8344964
vt 0.6887631 -0.8307306
vt 0.6801024 -0.09459275
vt 0.8889623 -0.8520064
vt 0.8814359 -0.09459275
vt -1.028262 0.06779516
vt -0.871067 -0.05405279
vt 0 0.6328398
vt 1.08704 0.6325731
vt 0 0.5222898
vt 1.07936 0.5222898
vt 1.087176 1
vt 1.08704 0.9986218
vt 1.157531 0.9208292
vt 1.225638 0.9208292
vt 1.22581 0.9218143
vt 1.160072 1
vt 0.127268 0.7087204
vt 0.1883973 0.7087281
vt 0.204497 0.7878218
vt 1.005287 0.8503194
vt 1.008256 0.7696583
vt 1.072467 0.7696505
vt 0.7264348 1.007871
vt 0.6246303 0.2301699
vt 0.646133 1.014077
vt 0.5040763 0.2301699
vt 1.00829 1.019524
vt 1.045017 0.9948807
vt 1.072502 1.019516
vt 0.1883039 1.310664
vt 0.1271748 1.310655
vt 0.1432674 1.291126
vt 0.871067 0
vt 1.028262 0.1257972
vt 1.028481 0.1267729
vt 0.9847193 0.1267729
vt 0.8798027 0.0438292
vt 0.8694077 0
vt 0.6361062 0.3320414
vt 0.555712 0.3384219
vt 0.6005681 0.3583708
vt -0.8982852 -0.1424511
vt -0.8873036 -0.07585891
vt -0.9799917 -0.05380924
vt 0.9037476 0.2663806
vt 0.8110923 0.2441955
vt 0.8040836 0.1771937
vt 0.8635074 0.1316954
vt -0.002873987 0.1014171
vt 0.8691667 0.2211111
vt -0.005274266 0.2211112
vt 0.8870279 0.06259382
vt 0.8543049 0.01540945
vt 0.8667067 -0.00163544
vt -0.8084112 -0.2411149
vt -0.8065906 -0.308582
vt -0.7826405 -0.2818379
vt -0.6856311 0.2372022
vt -0.7354406 0.1625952
vt -0.7366084 0.2107733

vn 0 0.9999595 -0.008994631
vn 0 -0.9998227 -0.01882817
vn -0.9812875 -0.1914799 -0.001611953
vn -0.9774204 -0.2112968 -0.001759158
vn -0.9851546 -0.171663 -0.001464747
vn 0 0 1
vn 0 0.5984133 -0.8011875
vn -0.9752438 -0.221096 -0.003514136
vn -0.974819 -0.2229694 -0.003546426
vn -0.9756687 -0.2192226 -0.003481846
vn -0.9700373 -0.2429253 -0.003858309
vn -0.9702834 -0.2419494 -0.002957231
vn -0.9705294 -0.2409736 -0.002056154
vn 0 -0.2042489 -0.978919
vn 0 -0.1692814 -0.9855677
vn 0 -1 0
vn -0.7653925 0.6435378 -0.005789139
vn -0.7287327 0.6826701 0.0001101256
vn -0.6920729 0.7218025 0.006009391
vn -0.0001420983 0.5985076 -0.8011171
vn -0.6179709 -0.7860616 -0.01480272
vn -0.621371 -0.7833853 -0.0136099
vn -0.6247712 -0.7807091 -0.01241708
vn 0.000246009 -0.7071067 0.7071068
vn 0.0001230045 -0.707963 0.7062485
vn 0 -0.7088193 0.7053902
vn 0.9752872 0.2209408 -3.776112E-09
vn 0.9447736 -0.1811557 0.2731035
vn 0.2920672 -0.2646517 0.9190518
vn 0.7357625 0.1373893 0.6631574
vn 0.7181413 0.1367815 0.6818386
vn 0.7005202 0.1361738 0.7005199
vn 0.2831335 0.3544486 0.8911799
vn 0.8584833 0.4488461 0.24808
vn 0 1 0
vn 0.6774709 -0.4837646 0.5540803
vn 0.2741906 0.9217587 0.2741905
vn 0.2905824 0.3675624 0.8834364
vn 0.01411122 0.6703291 0.7419298
vn 0.01708248 0.6886469 0.7244472
vn 0.02005375 0.7069646 0.7069646
vn -0.3067859 0.2425347 0.9203583
vn -0.3146582 0.8955336 0.3146584
vn 0.535595 0.5973807 0.5968872
vn 0.9812875 -0.1914799 -0.001611953
vn 0.9774204 -0.2112968 -0.001759158
vn 0.9851546 -0.171663 -0.001464747
vn 0.9752314 -0.2211511 -0.003514937
vn 0.974819 -0.2229693 -0.003546276
vn 0.9756439 -0.2193329 -0.003483597
vn 0.9700373 -0.2429253 -0.003858319
vn 0.9702834 -0.2419495 -0.002957236
vn 0.9705294 -0.2409736 -0.002056154
vn 0.7653942 0.6435357 -0.005789434
vn 0.7287335 0.6826691 0.0001099783
vn 0.6920729 0.7218025 0.006009391
vn 0.6179709 -0.7860616 -0.01480272
vn 0.6213712 -0.7833853 -0.01360986
vn 0.6247715 -0.780709 -0.012417
vn -0.9752854 0.2209491 -1.054743E-06
vn -0.9447702 -0.1811654 0.2731086
vn -0.2920691 -0.2646548 0.9190503
vn -0.7357604 0.1373892 0.6631598
vn -0.7181412 0.1367815 0.681839
vn -0.700522 0.1361739 0.7005181
vn -0.2831351 0.354453 0.8911777
vn -0.8584711 0.4488683 0.2480821
vn -0.6774748 -0.4837483 0.5540898
vn -0.2741934 0.9217575 0.2741919
vn -0.2905857 0.3675656 0.8834339
vn -0.01411123 0.6703292 0.7419297
vn -0.01708247 0.6886468 0.7244473
vn -0.02005371 0.7069644 0.7069649
vn 0.3067812 0.2425344 0.9203599
vn 0.3146544 0.8955352 0.3146573
vn -0.5355841 0.5973855 0.5968921

usemtl mat21_1
f 6/54/7 13/40/7 14/55/20
f 19/25/7 13/40/7 6/54/7
f 19/25/7 6/54/7 3/24/7
f 29/42/15 22/60/15 23/41/15
f 11/61/15 22/60/15 29/42/15
f 8/44/15 11/61/15 29/42/15
f 34/69/6 24/66/6 35/70/6
f 34/69/6 16/67/6 24/66/6
f 33/68/6 16/67/6 34/69/6
f 36/71/27 28/73/27 31/72/27
f 36/71/27 27/74/27 28/73/27
f 37/75/27 27/74/27 36/71/27
f 2/23/6 5/77/6 18/22/6
f 5/77/6 33/68/6 18/22/6
f 33/68/6 15/76/6 16/67/6
f 5/77/6 15/76/6 33/68/6
f 18/80/28 38/79/28 31/78/28
f 33/83/29 38/82/29 18/81/29
f 33/90/33 34/89/33 38/88/33
f 38/91/34 36/93/34 31/92/34
f 40/97/6 10/94/6 41/98/6
f 40/97/6 9/95/6 10/94/6
f 39/96/6 9/95/6 40/97/6
f 27/101/35 37/100/35 42/99/35
f 42/99/35 26/49/35 27/101/35
f 42/99/35 43/102/35 26/49/35
f 39/96/6 12/103/6 9/95/6
f 39/96/6 35/70/6 12/103/6
f 12/103/6 35/70/6 21/104/6
f 24/66/6 21/104/6 35/70/6
f 34/105/36 36/106/36 38/107/36
f 35/110/37 44/109/37 37/108/37
f 39/113/38 44/112/38 35/111/38
f 44/118/42 39/120/42 40/119/42
f 42/123/43 37/122/43 44/121/43
f 40/124/44 42/125/44 44/126/44
f 46/149/7 48/150/7 59/148/7
f 48/150/7 53/147/7 59/148/7
f 54/151/20 53/147/7 48/150/7
f 66/141/15 51/157/15 49/142/15
f 66/141/15 61/156/15 51/157/15
f 62/140/15 61/156/15 66/141/15
f 69/69/6 56/67/6 68/68/6
f 63/66/6 56/67/6 69/69/6
f 70/70/6 63/66/6 69/69/6
f 71/71/60 64/74/60 72/75/60
f 65/73/60 64/74/60 71/71/60
f 67/72/60 65/73/60 71/71/60
f 68/164/6 55/166/6 47/167/6
f 56/165/6 55/166/6 68/164/6
f 58/163/6 68/164/6 47/167/6
f 58/163/6 47/167/6 45/162/6
f 67/168/61 73/169/61 58/170/61
f 58/171/62 73/172/62 68/173/62
f 73/178/66 69/179/66 68/180/66
f 67/182/67 71/183/67 73/181/67
f 75/97/6 50/95/6 74/96/6
f 10/94/6 50/95/6 75/97/6
f 41/98/6 10/94/6 75/97/6
f 26/49/35 43/102/35 76/99/35
f 64/101/35 26/49/35 76/99/35
f 76/99/35 72/100/35 64/101/35
f 70/187/6 60/185/6 63/186/6
f 60/185/6 70/187/6 52/184/6
f 52/184/6 70/187/6 74/188/6
f 50/189/6 52/184/6 74/188/6
f 73/192/68 71/191/68 69/190/68
f 72/193/69 77/194/69 70/195/69
f 70/196/70 77/197/70 74/198/70
f 75/204/74 74/205/74 77/203/74
f 77/206/75 72/207/75 76/208/75
f 77/211/76 76/210/76 75/209/76
f 1/1/1 4/4/1 3/3/1
f 3/3/1 2/2/1 1/1/1
f 2/5/1 3/8/1 6/7/1
f 6/7/1 5/6/1 2/5/1
f 10/12/2 9/11/2 8/10/2
f 8/10/2 7/9/2 10/12/2
f 9/11/2 12/15/2 11/14/2
f 11/14/2 8/13/2 9/11/2
f 14/17/4 13/16/3 16/19/5
f 16/19/5 15/18/3 14/17/4
f 18/22/6 17/21/6 1/20/6
f 1/20/6 2/23/6 18/22/6
f 20/26/7 19/25/7 3/24/7
f 3/24/7 4/27/7 20/26/7
f 23/30/8 22/29/9 21/28/8
f 21/28/8 24/31/10 23/30/8
f 13/33/12 23/32/11 24/35/12
f 24/35/12 16/34/13 13/33/12
f 29/42/14 23/41/14 13/40/14
f 13/40/14 19/25/14 29/42/14
f 30/43/14 29/42/14 19/25/14
f 19/25/14 20/26/14 30/43/14
f 7/45/15 8/44/15 29/42/15
f 29/42/15 30/43/15 7/45/15
f 25/49/16 32/47/16 31/46/16
f 31/46/16 28/48/16 25/49/16
f 15/52/18 5/50/17 6/51/18
f 6/51/18 14/53/19 15/52/18
f 22/58/22 11/56/21 12/57/22
f 12/57/22 21/59/23 22/58/22
f 32/64/25 17/62/24 18/63/25
f 18/63/25 31/65/26 32/64/25
f 36/86/31 34/84/30 35/85/31
f 35/85/31 37/87/32 36/86/31
f 42/116/40 40/114/39 41/115/40
f 41/115/40 43/117/41 42/116/40
f 1/1/1 45/127/1 46/128/1
f 46/128/1 4/4/1 1/1/1
f 45/5/1 47/6/1 48/7/1
f 48/7/1 46/8/1 45/5/1
f 10/12/2 7/9/2 49/129/2
f 49/129/2 50/130/2 10/12/2
f 50/11/2 49/13/2 51/14/2
f 51/14/2 52/15/2 50/11/2
f 53/16/45 54/17/46 55/18/45
f 55/18/45 56/19/47 53/16/45
f 57/21/6 58/22/6 45/23/6
f 45/23/6 1/20/6 57/21/6
f 59/132/7 20/26/7 4/27/7
f 4/27/7 46/131/7 59/132/7
f 62/30/48 63/31/50 60/28/48
f 60/28/48 61/29/49 62/30/48
f 53/134/52 56/135/53 63/136/52
f 63/136/52 62/133/51 53/134/52
f 53/139/14 62/140/14 66/141/14
f 66/141/14 59/132/14 53/139/14
f 66/141/14 30/43/14 20/26/14
f 20/26/14 59/132/14 66/141/14
f 49/142/15 7/45/15 30/43/15
f 30/43/15 66/141/15 49/142/15
f 32/47/16 25/49/16 65/48/16
f 65/48/16 67/46/16 32/47/16
f 55/145/55 54/146/56 48/144/55
f 48/144/55 47/143/54 55/145/55
f 61/154/58 60/155/59 52/153/58
f 52/153/58 51/152/57 61/154/58
f 32/160/25 67/161/26 58/159/25
f 58/159/25 57/158/24 32/160/25
f 71/176/64 72/177/65 70/175/64
f 70/175/64 69/174/63 71/176/64
f 76/201/72 43/202/73 41/200/72
f 41/200/72 75/199/71 76/201/72

usemtl mat21
f 28/39/6 27/38/6 26/37/6 25/36/6
f 25/36/6 26/37/6 64/137/6 65/138/6

