# Blender v2.93.1 OBJ File: ''
# www.blender.org
mtllib sh_oreja_mandibula.mtl
o Shrek.001
v 5.079967 67.831383 5.156870
v -3.506833 66.351982 5.381570
v 1.538167 69.993881 4.455570
v 5.344867 73.221283 1.372771
v 7.590967 78.219780 -3.992928
v 8.602067 76.853577 -5.197128
v 0.848067 71.245583 5.798171
v 4.439667 74.522484 3.234371
v 5.653067 74.765182 5.740871
v 6.261867 77.492279 1.384072
v 7.052467 77.339478 -0.708628
v 5.558067 75.318581 8.246371
v 4.799867 75.871078 10.063771
v 2.597567 73.464882 11.689172
v 2.101467 74.385880 12.426372
v -1.244633 73.333183 14.199871
v 1.828567 75.160477 12.744371
v -2.401933 74.882980 14.446471
v 1.349567 76.968483 13.952572
v -2.344133 76.878380 15.800472
v -2.389533 78.442078 16.314772
v 0.546167 78.747978 14.457172
v -2.609633 78.818382 14.671872
v -12.144134 67.520683 5.326770
v -8.697133 69.809280 4.556571
v -16.051132 71.921677 0.955271
v -12.677834 72.896179 1.550571
v -15.208133 77.808479 -3.768028
v -16.192833 76.406380 -4.952528
v -14.573533 76.949379 -0.495328
v -13.747833 77.131279 1.581472
v -11.783633 74.229881 3.394372
v -8.026234 71.085480 5.885771
v 3.977367 76.553284 10.793672
v 2.521467 77.500282 12.494672
v 3.784767 78.610077 10.524073
v 3.211967 78.760880 11.331573
v -8.811934 76.964180 10.659672
v -6.629733 76.397079 13.059272
v -3.643633 78.810478 14.292772
v -3.601033 76.209579 13.860971
v -0.597433 76.505882 12.999771
v 1.515167 77.150482 10.557872
v -7.639633 71.853882 13.362371
v -5.845033 73.250183 14.245172
v -9.738133 73.242378 11.810871
v -9.261133 74.177078 12.535671
v -12.057533 75.566978 10.230071
v -11.245934 76.283783 10.947171
v -11.133033 78.349182 10.675873
v -10.550333 78.526077 11.473372
v -9.792033 77.298576 12.625872
v -4.739633 74.840782 14.469571
v -9.010233 74.973183 12.857072
v -8.573133 76.807983 14.058971
v -7.824433 78.601479 14.541172
v -4.669633 78.781181 14.692172
v -4.843533 78.397781 16.338972
v -4.842633 76.833282 15.825171
v -7.763333 70.675980 11.844670
v -10.081233 72.366783 10.413971
v -12.830934 74.986877 8.427772
v -3.550033 68.638977 5.181170
v -3.560333 70.037178 6.694571
v -5.540833 69.527184 9.593671
v -7.423933 69.825081 9.303070
v -9.966733 71.792183 7.965571
v -12.955333 74.429581 5.924371
v -5.556433 70.285080 12.313271
v -5.327332 71.709877 13.830570
v -1.505933 69.599983 9.553870
v -1.464133 70.358978 12.272970
v -1.714433 71.775078 13.794871
v 2.802467 72.022583 7.839571
v 2.944367 72.601784 10.285471
v 0.581467 72.002182 13.281271
v 0.717567 70.828979 11.760970
v 0.359067 69.965477 9.226271
v 0.574917 66.109169 5.731994
v -3.497105 65.925758 5.588124
v -7.168583 65.825699 5.854878
v 7.601923 71.993912 1.302007
v 7.774992 72.610939 0.898761
v 8.293277 74.639763 -1.114852
v 8.615751 76.404655 -4.605741
v 7.188648 70.446487 2.594444
v -2.563242 78.880051 15.061141
v -14.383815 77.726875 -7.147091
v 1.487904 78.815445 10.834086
v 1.822916 78.770432 9.463033
v 1.631575 78.726547 8.454361
v -11.038073 78.504852 10.765329
v -10.543259 78.544685 11.477798
v -7.443124 78.716843 13.947755
v -5.868008 78.804611 15.210721
v -14.049986 78.280525 6.895906
v -11.159225 78.499275 10.698408
v -10.522212 78.545715 11.491001
v -9.411532 78.610710 12.461142
v -7.992835 78.715584 14.263368
v -5.425137 78.782661 14.365211
v -1.097647 78.874107 13.980669
v 2.109264 78.886253 12.263577
v -9.030834 78.592201 11.743652
v -8.450803 78.637657 12.546885
v -0.095719 78.880577 13.513037
v -0.060402 78.879639 13.466450
v -3.436757 78.857124 15.023918
v 3.820138 78.862183 10.561110
v 3.026730 78.877090 11.446960
v -6.667809 78.716331 13.444046
v -3.779616 78.818893 14.256765
v 1.786448 78.855339 11.672155
v -4.698793 78.824020 14.970278
v 6.659442 78.782928 6.723491
v -13.370315 78.379402 9.011673
v -7.194917 78.708412 13.573762
v -4.774240 78.850052 15.688276
v 7.477997 78.383766 -4.071352
v -13.956348 78.295486 7.221843
v 7.386994 78.375938 -4.215425
v 7.531138 78.387688 -4.004155
v 7.009834 78.679672 3.843345
v 6.921638 78.275696 -6.501688
v 6.525411 78.224937 -7.557768
v 6.251899 78.562721 1.311937
v 6.942678 78.657585 3.317275
v 6.652199 78.785927 6.805332
v 6.615870 78.788155 6.885694
v 4.695286 78.866539 10.119324
v 4.210248 78.862122 10.312690
v 3.626450 78.861740 10.672381
v 3.699965 78.860435 10.592241
v -3.489251 78.825714 14.248492
v -13.299498 78.383606 9.075102
v -12.022425 78.463264 10.317434
v -14.438315 78.163071 4.117775
v -3.644177 78.822319 14.259223
v -7.109216 78.711494 13.598895
v 6.924956 78.495796 -0.837097
v 6.847335 78.515892 -0.270461
v -14.499806 77.977898 -0.611046
v 3.165140 78.877136 11.360529
v -11.392200 78.487991 10.555345
v -2.490869 78.904564 15.646582
v -14.421641 77.999283 -0.109823
v 6.036374 78.846977 8.766832
v 6.023216 78.847122 8.779046
v -9.018067 78.472069 8.642644
v -0.636031 78.862541 13.390738
v -11.086513 78.501747 10.716005
v -4.456900 78.857628 15.682482
v -15.189754 77.837761 -3.782078
v -14.032329 78.287392 7.061463
v -14.348692 78.133171 3.291292
v -1.766506 78.908852 15.298448
v 0.000128 78.888313 13.651521
v -15.161677 77.835930 -3.846867
v -15.174121 77.837143 -3.807768
v -15.198840 77.837997 -3.770173
v -15.201629 77.838654 -3.751617
v -13.774445 78.078400 1.517790
v 0.827787 78.921310 13.977485
v -9.183572 78.505821 9.616218
v -8.838210 78.565155 10.925332
v -6.992507 78.693718 13.067232
v -0.364225 78.856514 13.063555
v 7.549099 78.392265 -3.897545
vt 0.611568 0.948057
vt 0.694700 0.895500
vt 0.533500 0.923900
vt 0.534335 0.940900
vt 0.647800 0.800300
vt 0.950678 0.531492
vt 0.962100 0.509400
vt 0.908800 0.497700
vt 0.871598 0.639900
vt 0.777300 0.681800
vt 0.617400 0.754800
vt 0.732300 0.658400
vt 0.693500 0.635000
vt 0.791300 0.565400
vt 0.842500 0.553100
vt 0.839201 0.527158
vt 0.828672 0.531078
vt 0.790144 0.541856
vt 0.751214 0.545480
vt 0.739894 0.546369
vt 0.694276 0.551709
vt 0.691985 0.551844
vt 0.636000 0.618200
vt 0.661900 0.625100
vt 0.693191 0.551701
vt 0.598800 0.676100
vt 0.586700 0.657100
vt 0.531900 0.676500
vt 0.581100 0.642200
vt 0.516000 0.651600
vt 0.567600 0.608200
vt 0.515400 0.611900
vt 0.514700 0.586700
vt 0.558500 0.578900
vt 0.515382 0.566722
vt 0.541516 0.561560
vt 0.515600 0.561500
vt 0.535658 0.940900
vt 0.534800 0.923900
vt 0.696100 0.895500
vt 0.605683 0.952663
vt 0.649200 0.800300
vt 0.849300 0.730100
vt 0.778600 0.681800
vt 0.910100 0.497700
vt 0.963500 0.509400
vt 0.909877 0.497041
vt 0.909740 0.497359
vt 0.843800 0.553100
vt 0.845353 0.533224
vt 0.792700 0.565400
vt 0.733700 0.658400
vt 0.618800 0.754800
vt 0.909985 0.496941
vt 0.910345 0.496442
vt 0.663145 0.555290
vt 0.662896 0.555341
vt 0.621200 0.608300
vt 0.590800 0.596700
vt 0.635985 0.558989
vt 0.628363 0.560389
vt 0.621300 0.566700
vt 0.606600 0.567200
vt 0.604069 0.566846
vt 0.605984 0.565070
vt 0.618420 0.562452
vt 0.619946 0.562359
vt 0.621632 0.561517
vt 0.678964 0.071179
vt 0.686100 0.094600
vt 0.674913 0.082052
vt 0.669915 0.094600
vt 0.663734 0.119006
vt 0.662648 0.123300
vt 0.686100 0.123300
vt 0.659800 0.152600
vt 0.659800 0.151285
vt 0.686100 0.152600
vt 0.686100 0.181900
vt 0.663166 0.185573
vt 0.686100 0.210600
vt 0.669269 0.210600
vt 0.674436 0.223728
vt 0.559900 0.696700
vt 0.547300 0.676400
vt 0.600200 0.676100
vt 0.588100 0.657100
vt 0.637400 0.618200
vt 0.622700 0.608300
vt 0.622899 0.563593
vt 0.622700 0.566700
vt 0.621887 0.564079
vt 0.620916 0.564049
vt 0.607901 0.566851
vt 0.608000 0.567200
vt 0.607606 0.567146
vt 0.592200 0.596800
vt 0.589937 0.577563
vt 0.517400 0.651600
vt 0.582500 0.642200
vt 0.569000 0.608200
vt 0.559800 0.578900
vt 0.563425 0.577075
vt 0.560050 0.568095
vt 0.517000 0.561500
vt 0.529828 0.561530
vt 0.532123 0.575448
vt 0.516100 0.586700
vt 0.516447 0.575252
vt 0.516700 0.611900
vt 0.907515 0.493905
vt 0.908143 0.493346
vt 0.571400 0.724400
vt 0.618900 0.700200
vt 0.663300 0.625100
vt 0.526200 0.844300
vt 0.501400 0.785900
vt 0.538500 0.753500
vt 0.572500 0.741500
vt 0.631300 0.710200
vt 0.694900 0.635000
vt 0.739748 0.549324
vt 0.695651 0.554391
vt 0.693454 0.554369
vt 0.534000 0.738900
vt 0.526800 0.704500
vt 0.533300 0.676500
vt 0.524800 0.844300
vt 0.500000 0.785900
vt 0.537100 0.753500
vt 0.462900 0.753500
vt 0.467400 0.738900
vt 0.532600 0.738900
vt 0.474600 0.704500
vt 0.525400 0.704500
vt 0.482200 0.676700
vt 0.484000 0.651600
vt 0.484600 0.611900
vt 0.485300 0.586700
vt 0.503811 0.566108
vt 0.484400 0.561500
vt 0.484555 0.565223
vt 0.630000 0.710200
vt 0.617500 0.700200
vt 0.558600 0.696700
vt 0.570000 0.724400
vt 0.571200 0.741500
vt 0.182196 0.079554
vt 0.179100 0.099000
vt 0.189564 0.078937
vt 0.130020 0.075777
vt 0.131000 0.091400
vt 0.129318 0.077871
vt 0.140231 0.079125
vt 0.140441 0.079157
vt 0.143600 0.099000
vt 0.155300 0.080400
vt 0.146362 0.079500
vt 0.161400 0.101900
vt 0.167400 0.080400
vt 0.926309 0.995341
vt 0.927800 0.995700
vt 0.927800 0.995299
vt 0.827923 0.716384
vt 0.783052 0.800175
vt 0.816392 0.741183
vt 0.910923 0.495574
vt 0.564772 0.575951
vt 0.558758 0.564033
vt 0.525583 0.574804
vt 0.757491 0.547904
vt 0.794338 0.549925
vt 0.662271 0.181900
vt 0.834390 0.539280
vt 0.515057 0.574915
vt 0.488750 0.575205
vt 0.905834 0.495112
vt 0.626900 0.562969
vt 0.636803 0.561262
vt 0.662127 0.558197
vt 0.659800 0.154106
vt 0.929506 0.995289
vt 0.973402 0.430020
vt 0.959764 0.455822
vt 0.910190 0.490534
vt 0.691026 0.554639
vt 0.484953 0.575252
vt 0.181694 0.079567
vt 0.663443 0.557941
vt 0.191800 0.091400
vt 0.192955 0.078440
vt 0.192715 0.076396
vt 0.589402 0.575401
vt 0.171824 0.079955
vt 0.516845 0.565223
vt 0.678670 0.234987
vt 0.973832 0.436835
vn -0.0513 0.4346 0.8992
vn 0.1212 0.4969 0.8593
vn 0.0045 0.3102 0.9507
vn 0.0849 0.4795 0.8734
vn 0.3467 0.0082 0.9379
vn 0.8714 -0.3141 0.3769
vn 0.8356 0.5425 0.0862
vn 0.9093 0.4143 0.0393
vn 0.7296 0.5809 0.3610
vn 0.6288 0.1861 0.7550
vn 0.5447 -0.8068 0.2288
vn 0.8149 -0.5493 0.1850
vn 0.8183 -0.5730 -0.0461
vn 0.9733 -0.1901 0.1285
vn 0.9706 -0.1313 0.2016
vn 0.6288 0.1862 0.7550
vn 0.9697 0.2146 -0.1172
vn 0.9981 0.0609 0.0039
vn 0.7227 -0.3535 -0.5939
vn 0.9985 -0.0032 -0.0555
vn 0.9970 0.0557 -0.0537
vn 0.9738 -0.0992 0.2045
vn 0.9246 0.0960 0.3687
vn 0.7909 -0.1763 0.5860
vn 0.8820 -0.3815 0.2767
vn 0.9856 0.0365 0.1650
vn 0.7138 -0.3316 0.6169
vn 0.6035 -0.1950 0.7731
vn 0.2529 -0.1079 0.9615
vn 0.5879 -0.1979 0.7843
vn 0.1738 -0.3190 0.9317
vn 0.6098 -0.1664 0.7749
vn 0.2226 -0.4224 0.8786
vn 0.2170 0.3036 0.9278
vn 0.4568 0.6103 0.6472
vn -0.0998 0.9781 -0.1827
vn -0.0478 0.9853 0.1639
vn -0.0629 0.9869 -0.1488
vn 0.0534 0.4365 0.8981
vn 0.0030 0.3101 0.9507
vn -0.1221 0.4925 0.8617
vn 0.0121 0.2656 0.9640
vn -0.3282 -0.0040 0.9446
vn -0.3531 0.5723 0.7401
vn -0.6200 0.1636 0.7673
vn -0.9272 0.3738 0.0251
vn -0.3531 0.5724 0.7401
vn -0.9272 0.3738 0.0252
vn -0.8417 0.5359 0.0654
vn -0.8874 0.2024 -0.4142
vn -0.9272 0.3738 0.0255
vn -0.8724 0.3747 -0.3140
vn -0.9946 0.1038 -0.0036
vn -0.9611 -0.1661 0.2207
vn -0.8804 0.1513 0.4495
vn -0.6200 0.1636 0.7674
vn -0.9631 -0.2251 0.1476
vn -0.7907 -0.5783 0.2009
vn -0.5106 -0.8259 0.2392
vn -0.3411 0.7000 -0.6275
vn -0.5238 0.4185 -0.7420
vn -0.9272 0.3739 0.0249
vn -0.5070 0.7238 -0.4681
vn -0.6796 0.6133 -0.4024
vn -0.9272 0.3737 0.0255
vn 0.8946 -0.4462 0.0220
vn 0.8749 -0.0738 0.4787
vn 0.7375 0.3340 0.5869
vn 0.6963 0.0223 0.7174
vn 0.7519 0.2738 0.5998
vn 0.7590 0.1576 0.6317
vn 0.7591 0.1576 0.6316
vn 0.7077 -0.0574 0.7042
vn 0.6476 -0.0489 0.7604
vn 0.5311 0.4371 0.7259
vn 0.5990 0.0669 0.7979
vn 0.2108 0.5228 0.8260
vn 0.7627 0.1582 0.6271
vn 0.6816 -0.0062 0.7317
vn 0.3804 0.3261 0.8654
vn 0.6381 0.1680 0.7514
vn 0.8335 -0.0321 0.5516
vn 0.4206 -0.1586 0.8933
vn -0.0722 0.1415 0.9873
vn -0.9341 -0.3250 -0.1475
vn -0.8762 -0.1357 0.4625
vn -0.9057 0.2965 -0.3029
vn -0.9501 -0.3086 -0.0453
vn -0.9537 0.1774 0.2430
vn -0.8867 -0.1071 0.4497
vn -0.6012 -0.2633 0.7545
vn -0.5345 -0.1561 0.8306
vn -0.5196 -0.1482 0.8415
vn 0.0127 -0.1635 0.9865
vn -0.2107 0.1093 0.9714
vn 0.5411 -0.1290 0.8310
vn 0.5564 -0.1010 0.8248
vn 0.8894 -0.1039 0.4451
vn 0.7537 0.1356 0.6431
vn 0.8988 -0.0306 0.4372
vn 0.9906 -0.1339 0.0296
vn -0.4765 -0.3897 0.7881
vn -0.4472 0.1076 0.8879
vn -0.6890 -0.3566 0.6309
vn -0.5594 -0.2090 0.8021
vn -0.7725 -0.2052 0.6010
vn -0.6833 -0.0043 0.7302
vn -0.6009 -0.1505 0.7850
vn -0.5860 0.0461 0.8090
vn 0.0108 -0.5490 0.8357
vn -0.3925 0.2393 0.8881
vn -0.5861 0.0461 0.8090
vn -0.7927 0.1398 0.5933
vn -0.6199 0.0282 0.7842
vn -0.7597 0.1359 0.6359
vn -0.3476 -0.2805 0.8947
vn -0.5197 0.3457 0.7813
vn -0.7597 0.1360 0.6359
vn -0.7518 0.1281 0.6469
vn -0.4942 0.2300 0.8383
vn -0.6833 -0.0043 0.7301
vn -0.3631 -0.3291 0.8717
vn -0.5394 -0.2654 0.7991
vn -0.5394 -0.2654 0.7992
vn -0.5894 -0.1632 0.7912
vn -0.6832 -0.0043 0.7302
vn -0.4264 0.5725 0.7003
vn -0.4109 0.0790 0.9083
vn 0.8329 0.4895 0.2582
vn 0.0576 0.9785 0.1980
vn -0.0519 0.9938 -0.0982
vn -0.2191 0.9747 -0.0437
vn -0.3267 0.9179 0.2254
vn -0.4865 0.2550 0.8356
vn 0.3756 0.6639 0.6466
vn -0.4865 0.2549 0.8357
vn -0.4256 -0.3513 0.8339
vn 0.8423 0.3076 -0.4426
vn 0.4216 -0.3331 -0.8434
vn -0.4676 -0.7809 0.4142
vn -0.7253 -0.6125 0.3142
vn -0.8620 -0.4130 0.2939
vn -0.1967 -0.2933 0.9356
vn -0.2677 -0.9204 0.2850
vn -0.1780 -0.9832 -0.0395
vn -0.3589 -0.9332 -0.0165
vn -0.6331 -0.7732 -0.0376
vn -0.7978 -0.6021 -0.0302
vn -0.9867 -0.1524 -0.0567
vn -0.8447 -0.2084 0.4930
vn -0.9905 -0.1055 0.0877
vn -0.9585 -0.1196 0.2589
vn -0.2534 -0.8248 0.5055
vn -0.2228 -0.5460 0.8076
vn -0.2071 -0.3186 0.9250
vn 0.2256 -0.2856 0.9314
vn 0.2176 -0.9662 0.1380
vn 0.1330 -0.9909 0.0195
vn 0.2215 -0.9657 0.1353
vn 0.0190 -0.9940 0.1074
vn 0.0206 -0.8758 0.4823
vn 0.1607 -0.8532 0.4962
vn 0.0176 -0.5001 0.8658
vn 0.1211 -0.5199 0.8456
vn 0.1211 -0.5200 0.8456
vn 0.0134 -0.2098 0.9776
vn 0.0134 -0.2098 0.9777
vn 0.0153 -0.3311 0.9435
vn 0.0168 -0.4404 0.8976
vn 0.0168 -0.4404 0.8977
vn 0.0042 0.2901 0.9570
vn 0.0407 0.9630 0.2662
vn 0.0214 0.9902 -0.1381
vn 0.2132 0.9609 0.1769
vn -0.0194 0.9878 -0.1542
vn 0.6597 -0.7498 -0.0504
vn 0.7530 -0.5859 0.2996
vn 0.5057 -0.3720 0.7784
vn 0.1211 -0.5200 0.8455
vn 0.5035 -0.7634 0.4046
vn 0.3919 -0.9197 -0.0239
vn 0.4864 0.2857 -0.8257
vn 0.4553 0.3380 -0.8237
vn 0.6573 0.4060 -0.6349
vn -0.9911 -0.1303 -0.0278
vn -0.9124 0.2823 -0.2965
vn -0.9701 -0.2254 -0.0902
vn -0.8764 0.0227 -0.4810
vn -0.1831 0.7850 -0.5917
vn -0.5784 0.3525 -0.7357
vn -0.5476 0.3210 -0.7727
vn -0.2140 0.3269 -0.9205
vn -0.2113 0.2998 -0.9303
vn 0.0073 0.3655 -0.9308
vn 0.2145 0.3799 -0.8998
vn -0.0416 0.9501 0.3092
vn -0.0137 0.9428 0.3331
vn -0.0313 0.9476 0.3180
vn 0.6254 0.7306 0.2741
vn 0.3649 0.6159 0.6983
vn 0.2873 0.4735 0.8326
vn 0.3400 0.6083 0.7172
vn 0.6904 0.3927 0.6075
vn 0.3029 0.6037 0.7374
vn -0.9271 0.3739 0.0253
vn -0.5777 0.8122 -0.0809
vn -0.5971 0.7408 -0.3078
vn 0.2011 0.8724 -0.4455
vn 0.0090 0.9560 0.2931
vn 0.5591 0.7091 -0.4295
vn 0.0575 0.9626 0.2648
vn -0.7756 0.3527 -0.5235
vn -0.9603 0.2703 -0.0691
vn 0.7894 0.1315 0.5996
vn 0.5585 -0.1658 0.8128
vn -0.8005 -0.2225 0.5566
vn -0.9946 -0.0643 0.0810
vn 0.3250 0.9156 0.2367
vn 0.0340 0.9598 0.2786
vn 0.2170 0.3037 0.9277
vn 0.5176 0.8408 0.1583
vn -0.0176 0.9679 0.2508
vn -0.9099 0.3028 0.2836
vn -0.9866 0.1630 0.0011
vn 0.8460 0.3631 0.3903
vn 0.9434 0.3259 0.0623
vn -0.9585 -0.2664 0.1021
vn -0.9655 -0.1677 -0.1992
vn -0.4741 -0.1023 0.8745
vn -0.6066 -0.1055 0.7880
vn -0.7191 -0.0173 0.6947
vn -0.8635 -0.0896 0.4964
vn 0.2277 0.1213 0.9662
vn 0.4181 0.1114 0.9016
vn -0.0137 0.9428 0.3330
vn 0.0119 0.9385 0.3451
vn 0.0146 -0.5094 0.8604
vn 0.9617 0.0071 0.2739
vn 0.6468 0.0156 0.7625
vn 0.9616 0.1922 0.1957
vn 0.9243 0.3472 0.1585
vn 0.7424 0.5954 -0.3071
vn 0.4190 0.8020 -0.4258
vn 0.9261 -0.3254 0.1910
vn 0.9913 -0.1313 -0.0025
vn 0.9317 0.3206 -0.1707
vn 0.9794 0.2011 -0.0200
vn 0.7378 0.5088 -0.4436
vn 0.2651 0.9459 -0.1872
vn -0.8612 0.0540 0.5055
vn -0.9551 -0.1889 0.2282
vn 0.9093 0.4143 0.0394
vn 0.5472 -0.1247 -0.8277
vn 0.5988 0.6209 -0.5059
vn 0.4366 0.8964 0.0770
vn -0.0941 0.9612 0.2592
vn 0.3739 0.0703 -0.9248
vn 0.4922 0.2610 -0.8305
vn -0.6515 -0.0043 0.7586
vn -0.8373 -0.1691 0.5199
vn -0.9712 0.0272 0.2368
vn -0.9650 -0.1387 0.2224
vn 0.9719 -0.0767 -0.2225
vn 0.9473 -0.1716 0.2705
vn -0.7446 0.1777 0.6435
vn -0.6602 0.1311 0.7396
vn 0.2840 -0.2864 0.9150
vn 0.5388 -0.0581 0.8405
vn -0.7928 0.0019 -0.6095
vn -0.5881 0.2902 -0.7549
vn 0.9116 0.3056 -0.2749
vn 0.6621 0.1514 -0.7340
vn 0.3424 -0.2381 -0.9089
vn 0.9315 0.1632 0.3249
vn 0.7193 -0.4519 -0.5276
vn 0.7591 0.1576 0.6317
vn 0.8554 0.3123 0.4133
vn 0.6402 0.1138 0.7597
vn 0.7219 0.4190 0.5507
vn 0.6103 0.1617 0.7755
vn 0.5261 0.6277 -0.5737
vn 0.2222 0.4093 -0.8849
vn -0.6769 0.6582 0.3294
vn -0.5526 0.2458 0.7964
vn -0.6842 -0.3149 0.6578
vn -0.4866 -0.0150 0.8735
vn 0.5571 0.6008 0.5733
vn -0.0331 0.9629 0.2678
vn -0.7738 0.2736 0.5713
vn -0.6444 0.4611 0.6101
vn 0.5562 -0.6010 -0.5740
vn 0.9683 -0.2292 -0.0990
vn -0.6334 0.7442 0.2120
vn -0.6640 0.5810 -0.4708
usemtl 08___Default
s 1
f 79/1/1 1/2/2 2/3/3 80/4/4
f 2/3/3 1/2/2 3/5/5
f 85/6/6 6/7/7 5/8/8 84/9/9
f 3/5/5 4/10/10 7/11/11
f 4/10/10 8/12/12 7/11/11
f 7/11/11 8/12/12 9/13/13
f 9/13/13 8/12/12 10/14/14
f 8/12/12 4/10/10 10/14/14
f 10/14/14 4/10/10 11/15/15
f 4/10/16 5/8/8 11/15/15
f 140/16/17 141/17/18 11/15/15
f 126/18/19 127/19/20 10/14/14
f 123/20/21 115/21/22 9/13/13
f 129/22/23 13/23/24 12/24/25 128/25/26
f 12/24/25 13/23/24 14/26/27
f 13/23/24 15/27/28 14/26/27
f 14/26/27 15/27/28 16/28/29
f 15/27/28 17/29/30 16/28/29
f 16/28/29 17/29/30 18/30/31
f 17/29/30 19/31/32 18/30/31
f 18/30/31 19/31/32 20/32/33
f 20/32/33 19/31/32 21/33/34
f 19/31/32 22/34/35 21/33/34
f 87/35/36 102/36/37 23/37/38
f 80/38/39 2/39/40 24/40/41 81/41/42
f 2/39/40 25/42/43 24/40/41
f 24/40/41 25/42/43 26/43/44
f 25/42/43 27/44/45 26/43/44
f 27/44/45 28/45/46 26/43/44
f 26/43/47 28/45/48 29/46/49
f 160/47/50 28/45/51 161/48/52
f 161/48/53 28/45/48 30/49/54 142/50/55
f 28/45/48 27/44/56 30/49/54
f 27/44/45 31/51/57 30/49/54
f 31/51/57 27/44/45 32/52/58
f 32/52/58 27/44/45 33/53/59
f 27/44/45 25/42/43 33/53/59
f 160/47/60 153/54/61 28/45/62
f 153/54/63 159/55/64 28/45/65
f 129/22/66 147/56/67 13/23/24
f 148/57/68 34/58/69 13/23/24 147/56/70
f 13/23/24 34/58/69 15/27/28
f 15/27/28 34/58/69 17/29/30
f 17/29/30 34/58/69 19/31/32
f 34/58/69 35/59/71 19/31/32
f 19/31/32 35/59/72 22/34/35
f 148/57/73 130/60/74 34/58/69
f 131/61/75 36/62/76 34/58/69 130/60/77
f 34/58/69 36/62/76 35/59/71
f 36/62/76 37/63/78 35/59/71
f 110/64/79 37/63/78 143/65/80
f 132/66/81 36/62/76 133/67/82
f 133/67/83 36/62/76 109/68/84
f 149/69/85 38/70/86 164/71/87
f 164/71/88 38/70/86 165/72/89
f 165/72/90 38/70/86 166/73/91
f 111/74/92 39/75/93 40/76/94 112/77/95
f 39/75/93 41/78/94 40/76/94
f 41/78/94 42/79/96 40/76/94
f 167/80/97 43/81/98 89/82/99
f 89/82/100 43/81/98 90/83/101
f 44/84/102 45/85/103 46/86/104
f 45/85/103 47/87/105 46/86/104
f 46/86/104 47/87/105 48/88/106
f 47/87/105 49/89/107 48/88/106
f 97/90/108 50/91/109 151/92/110
f 151/92/111 50/91/112 92/93/113
f 93/94/114 51/95/115 98/96/116
f 98/96/117 51/95/118 52/97/119 99/98/120
f 51/95/118 50/91/109 52/97/119
f 52/97/119 50/91/109 49/89/121
f 45/85/103 53/99/122 47/87/105
f 53/99/122 54/100/123 47/87/105
f 47/87/105 54/100/124 49/89/121
f 54/100/124 55/101/125 49/89/121
f 49/89/126 55/101/125 52/97/119
f 55/101/125 56/102/127 52/97/119
f 100/103/128 56/102/127 94/104/129
f 94/104/130 56/102/127 57/105/131 101/106/132
f 95/107/133 56/102/127 58/108/134 118/109/135
f 58/108/136 56/102/127 59/110/137
f 56/102/127 55/101/125 59/110/137
f 55/101/125 54/100/123 59/110/137
f 59/110/137 54/100/124 53/99/122
f 122/111/138 5/8/8 119/112/139
f 60/113/140 44/84/102 61/114/141
f 44/84/102 46/86/104 61/114/141
f 61/114/141 46/86/104 62/115/142
f 46/86/104 48/88/106 62/115/142
f 2/39/40 63/116/143 25/42/43
f 25/42/43 63/116/143 33/53/59
f 63/116/143 64/117/144 33/53/59
f 64/117/144 65/118/145 33/53/59
f 65/118/145 66/119/146 33/53/59
f 66/119/146 67/120/147 33/53/59
f 67/120/147 68/121/148 33/53/59
f 33/53/59 68/121/148 32/52/58
f 32/52/58 68/121/148 31/51/57
f 137/122/149 68/121/148 96/123/150
f 96/123/151 68/121/148 62/115/142 154/124/152
f 68/121/148 67/120/147 62/115/142
f 62/115/142 67/120/147 61/114/141
f 67/120/147 66/119/146 61/114/141
f 61/114/141 66/119/146 60/113/140
f 66/119/146 65/118/145 60/113/140
f 65/118/145 69/125/153 60/113/140
f 69/125/153 70/126/154 60/113/140
f 60/113/140 70/126/154 44/84/102
f 70/126/154 45/127/155 44/84/102
f 2/3/3 3/5/5 63/128/156
f 3/5/5 7/11/11 63/128/156
f 63/128/156 7/11/11 64/129/157
f 7/11/11 71/130/158 64/129/157
f 64/129/159 71/130/158 65/131/160
f 65/131/160 71/130/158 69/132/161
f 71/130/158 72/133/162 69/132/161
f 69/132/161 72/133/162 70/134/163
f 72/133/162 73/135/164 70/134/163
f 70/134/163 73/135/165 45/136/166
f 73/135/165 16/28/29 45/136/167
f 45/136/167 16/28/29 53/137/168
f 16/28/29 18/30/31 53/137/168
f 53/137/168 18/30/31 59/138/169
f 18/30/31 20/32/33 59/138/170
f 59/138/170 20/32/33 58/139/171
f 20/32/33 21/33/34 58/139/171
f 87/35/172 23/37/38 108/140/173
f 108/140/174 23/37/38 57/141/175 114/142/175
f 9/13/13 12/24/25 74/143/176
f 74/143/176 12/24/25 75/144/177
f 12/24/25 14/26/27 75/144/177
f 75/144/177 14/26/27 76/145/178
f 14/26/27 16/28/29 76/145/178
f 16/28/29 73/135/165 76/145/178
f 76/145/178 73/135/179 77/146/180
f 73/135/165 72/133/162 77/146/180
f 72/133/162 71/130/158 77/146/180
f 77/146/180 71/130/158 78/147/181
f 71/130/158 7/11/11 78/147/181
f 78/147/181 7/11/11 74/143/176
f 7/11/11 9/13/13 74/143/176
f 76/145/178 77/146/180 75/144/177
f 77/146/180 78/147/181 75/144/177
f 75/144/177 78/147/181 74/143/176
f 117/148/182 39/149/183 105/150/184
f 91/151/185 43/152/186 113/153/187
f 113/153/188 43/152/186 107/154/189
f 106/155/190 42/156/191 23/157/192 102/158/193
f 42/156/191 41/159/194 23/157/192
f 23/157/192 41/159/194 57/160/195
f 112/161/196 40/162/197 138/163/198
f 4/10/10 83/164/199 84/9/200 5/8/8
f 1/2/2 86/165/201 82/166/202 3/5/5
f 3/5/5 82/166/203 83/164/204 4/10/10
f 28/45/205 159/55/206 158/167/207
f 22/34/35 163/168/208 157/169/209
f 22/34/35 157/169/210 156/170/211
f 31/51/57 155/171/212 162/172/213
f 42/79/96 43/81/98 167/80/214 150/173/215
f 31/51/57 162/172/216 146/174/217 30/49/54
f 21/33/34 22/34/35 156/170/218 145/175/219
f 21/33/220 145/175/221 152/176/222
f 30/49/54 146/174/223 142/50/224
f 11/15/15 5/8/8 168/177/225 140/16/226
f 68/121/148 137/122/227 155/171/228 31/51/57
f 49/89/107 50/91/109 144/178/229 136/179/230
f 49/89/107 136/179/231 135/180/232
f 40/76/94 42/79/96 150/173/233 134/181/234
f 40/162/235 134/182/236 138/163/237
f 37/63/78 36/62/76 132/66/238 143/65/239
f 11/15/15 141/17/240 126/18/241 10/14/14
f 6/7/242 125/183/242 124/184/243
f 10/14/14 127/19/244 123/20/245 9/13/13
f 5/8/246 122/111/246 168/177/247
f 5/8/8 6/7/7 124/184/248 121/185/249
f 62/115/142 48/88/106 120/186/250 154/124/251
f 5/8/252 121/185/253 119/112/254
f 58/139/171 21/33/34 152/176/255 118/187/256
f 41/159/194 39/149/183 117/148/257 139/188/258
f 48/88/106 49/89/107 135/180/259 116/189/260
f 48/88/106 116/189/261 120/186/262
f 9/13/13 115/21/263 128/25/264 12/24/25
f 38/70/86 39/75/93 111/74/265 166/73/266
f 36/62/76 131/61/267 109/68/268
f 43/152/186 42/156/191 106/155/269 107/154/270
f 39/149/183 38/190/271 104/191/272 105/150/273
f 38/190/271 149/192/274 104/191/275
f 35/59/276 103/193/277 163/168/278 22/34/35
f 35/59/276 37/63/78 110/64/279 103/193/280
f 57/160/195 41/159/194 139/188/281 101/194/282
f 52/97/119 56/102/127 100/103/283 99/98/284
f 50/91/109 97/90/285 144/178/286
f 57/105/131 56/102/127 95/107/287 114/195/288
f 50/91/109 51/95/118 93/94/289 92/93/290
f 43/81/98 91/196/291 90/83/292
f 29/46/49 28/45/48 158/167/293 88/197/294
