# ProBuilder 4.2.3
# https://unity3d.com/unity/features/worldbuilding/probuilder
# 17/7/2021 8:06:28 p. m.

mtllib ./CañonArma1.mtl
o CañonArma1

g Cylinder
v -0.5 -0.5000001 -7.105427E-15
v -0.5 0.4999999 -7.105427E-15
v -0.3535534 -0.5000001 0.3535534
v -0.3535534 0.4999999 0.3535534
v 0 -0.5000001 0.5
v 0 0.4999999 0.5
v 0.3535534 -0.5000001 0.3535534
v 0.3535534 0.4999999 0.3535534
v 0.5 -0.5000001 -4.37114E-08
v 0.5 0.4999999 -4.37114E-08
v 0.3535534 -0.5000001 -0.3535534
v 0.3535534 0.4999999 -0.3535534
v 0 -0.5000001 -0.5
v 0 0.4999999 -0.5
v -0.3535533 -0.5000001 -0.3535534
v -0.3535533 0.4999999 -0.3535534
v 0 -0.5000001 -7.105427E-15
v -0.3467159 -0.1175857 -7.105427E-15
v -0.2451649 -0.1175857 0.2451649
v 0 -0.1175857 0.3467157
v 0.2451649 -0.1175857 0.2451649
v 0.3467159 -0.1175857 -7.105427E-15
v 0.2451649 -0.1175857 -0.2451649
v 0 -0.1175857 -0.3467157
v 0 -0.1175857 -7.105427E-15
v -0.2451649 -0.1175857 -0.2451651
v -0.2451649 0.4911627 -0.2451651
v 0 0.4911627 -0.3467157
v 0.2451649 0.4911627 -0.2451649
v 0.3467159 0.4911627 -7.105427E-15
v 0.2451649 0.4911627 0.2451649
v 0 0.4911627 0.3467157
v -0.2451649 0.4911627 0.2451649
v -0.3467159 0.4911627 -7.105427E-15

vt -0.1913417 -0.5000001
vt -0.1913417 0.4999999
vt 0.1913417 -0.5000001
vt 0.1913417 0.4999999
vt -0.5 -7.105427E-15
vt 0 -7.105427E-15
vt -0.3535534 0.3535534
vt 0.3467159 -7.105427E-15
vt 0 0.5
vt 0.2451649 0.2451649
vt 0.3535534 0.3535534
vt 0 0.3467157
vt 0.5 -4.37114E-08
vt -0.2451649 0.2451649
vt 0.3535534 -0.3535534
vt -0.3467159 -7.105427E-15
vt 0 -0.5
vt -0.2451649 -0.2451649
vt -0.3535533 -0.3535534
vt 0 -0.3467157
vt 0.2451649 -0.2451651
vt 0.3653894 -0.3812443
vt 0.0119369 -0.5279338
vt 0.2568209 -0.2726761
vt 0.01172592 -0.3743952
vt -0.0119369 -0.5279338
vt -0.3653896 -0.3812442
vt -0.01172592 -0.3743952
vt -0.2568209 -0.2726758
vt -0.3817459 -0.3648652
vt -0.5279497 -0.01121148
vt -0.2730284 -0.256446
vt -0.3744111 -0.01121143
vt -0.5279498 0.01121142
vt -0.381746 0.3648653
vt -0.3744112 0.01121146
vt -0.2730285 0.256446
vt -0.3653895 0.3812442
vt -0.01193688 0.5279338
vt -0.2568209 0.2726758
vt -0.0117259 0.3743951
vt 0.0119369 0.5279338
vt 0.3653895 0.3812442
vt 0.01172592 0.3743952
vt 0.2568209 0.2726758
vt 0.3817459 0.3648653
vt 0.5279498 0.01121144
vt 0.2730284 0.256446
vt 0.3744111 0.01121143
vt 0.5279498 -0.01121147
vt 0.3817459 -0.3648654
vt 0.3744112 -0.01121147
vt 0.2730285 -0.2564462
vt -0.1326822 0.4911627
vt 0.1326823 0.4911627
vt -0.1326822 -0.1175857
vt 0.1326823 -0.1175857

vn -1 0 -4.83867E-08
vn -0.7071068 0 0.7071068
vn -1.61289E-08 0 1
vn 0.7071068 0 0.7071068
vn 1 0 -4.83867E-08
vn 0.7071068 0 -0.7071068
vn 3.22578E-08 0 -1
vn -0.7071067 0 -0.7071068
vn 0 -1 0
vn 0 1 0
vn 0.02383425 0.9980586 0.05754096
vn -0.02383425 0.9980586 0.05754096
vn -0.05754088 0.9980586 0.02383421
vn -0.05754106 0.9980586 -0.02383428
vn -0.02383422 0.9980586 -0.05754088
vn 0.02383425 0.9980586 -0.05754096
vn 0.05754089 0.9980586 -0.02383422
vn 0.05754105 0.9980586 0.02383429
vn 0.3826833 0 0.9238796
vn -0.3826841 0 0.9238793
vn -0.923879 0 0.3826849
vn -0.923879 0 -0.3826849
vn -0.3826841 0 -0.9238793
vn 0.3826841 0 -0.9238793
vn 0.923879 0 -0.3826849
vn 0.9238791 0 0.3826846

usemtl mat21_1
f 1/5/9 17/6/9 3/7/9
f 3/7/9 17/6/9 5/9/9
f 5/9/9 17/6/9 7/11/9
f 7/11/9 17/6/9 9/13/9
f 9/13/9 17/6/9 11/15/9
f 11/15/9 17/6/9 13/17/9
f 13/17/9 17/6/9 15/19/9
f 15/19/9 17/6/9 1/5/9
f 4/4/2 2/2/1 1/1/1
f 1/1/1 3/3/2 4/4/2
f 6/4/3 4/2/2 3/1/2
f 3/1/2 5/3/3 6/4/3
f 8/4/4 6/2/3 5/1/3
f 5/1/3 7/3/4 8/4/4
f 10/4/5 8/2/4 7/1/4
f 7/1/4 9/3/5 10/4/5
f 12/4/6 10/2/5 9/1/5
f 9/1/5 11/3/6 12/4/6
f 14/4/7 12/2/6 11/1/6
f 11/1/6 13/3/7 14/4/7
f 16/4/8 14/2/7 13/1/7
f 13/1/7 15/3/8 16/4/8
f 2/4/1 16/2/8 15/1/8
f 15/1/8 1/3/1 2/4/1
f 28/25/11 14/23/11 16/22/11
f 16/22/11 27/24/11 28/25/11
f 29/29/12 12/27/12 14/26/12
f 14/26/12 28/28/12 29/29/12
f 30/33/13 10/31/13 12/30/13
f 12/30/13 29/32/13 30/33/13
f 31/37/14 8/35/14 10/34/14
f 10/34/14 30/36/14 31/37/14
f 32/41/15 6/39/15 8/38/15
f 8/38/15 31/40/15 32/41/15
f 33/45/16 4/43/16 6/42/16
f 6/42/16 32/44/16 33/45/16
f 34/49/17 2/47/17 4/46/17
f 4/46/17 33/48/17 34/49/17
f 27/53/18 16/51/18 2/50/18
f 2/50/18 34/52/18 27/53/18
f 24/57/19 28/55/19 27/54/19
f 27/54/19 26/56/19 24/57/19
f 23/57/20 29/55/20 28/54/20
f 28/54/20 24/56/20 23/57/20
f 22/57/21 30/55/21 29/54/21
f 29/54/21 23/56/21 22/57/21
f 21/57/22 31/55/22 30/54/22
f 30/54/22 22/56/22 21/57/22
f 20/57/23 32/55/23 31/54/23
f 31/54/23 21/56/23 20/57/23
f 19/57/24 33/55/24 32/54/24
f 32/54/24 20/56/24 19/57/24
f 18/57/25 34/55/25 33/54/25
f 33/54/25 19/56/25 18/57/25
f 26/57/26 27/55/26 34/54/26
f 34/54/26 18/56/26 26/57/26

usemtl mat21
f 26/21/10 25/6/10 24/20/10
f 24/20/10 25/6/10 23/18/10
f 23/18/10 25/6/10 22/16/10
f 22/16/10 25/6/10 21/14/10
f 21/14/10 25/6/10 20/12/10
f 20/12/10 25/6/10 19/10/10
f 19/10/10 25/6/10 18/8/10
f 18/8/10 25/6/10 26/21/10

