# Blender v2.93.1 OBJ File: ''
# www.blender.org
mtllib sh_oreja_iz.mtl
o Shrek
v 36.223633 99.000595 -1.611930
v 35.746330 99.692390 -2.246030
v 35.287933 100.141396 -1.410930
v 35.658531 99.456589 -0.833830
v 37.540031 99.497292 -1.546530
v 36.691833 100.022888 -0.800730
v 38.314930 99.786995 -0.149930
v 39.786430 99.654289 -1.245730
v 38.553230 99.990089 -0.009530
v 39.938732 99.898895 -0.950030
v 36.858032 100.292992 -2.013230
v 37.680931 100.384491 -0.017130
v 37.407131 100.252594 -0.142030
v 37.147430 101.115692 -0.411830
v 36.342731 101.283791 -1.235130
v 37.454033 100.944794 -2.267730
v 40.132832 100.883789 -1.934230
v 40.319031 100.995392 -1.559230
v 39.947330 102.586189 -1.648230
v 38.773632 103.528793 -1.249630
v 39.683632 102.489891 -2.050530
v 38.426331 103.499794 -1.476230
v 37.367931 103.079391 -0.900830
v 37.481430 101.201393 -0.314230
v 37.796532 103.137192 -0.758130
v 37.401417 85.319267 -7.629545
v 34.608852 98.586563 -2.518831
v 34.534748 98.799385 -2.664674
v 34.425579 98.956573 -2.402340
v 33.961819 99.644356 -1.349166
v 34.009319 99.501251 -1.235271
v 35.028774 97.392906 -1.730177
v 34.948586 97.521065 -1.576256
v 34.414875 98.320526 -0.388448
vt 0.720174 0.002700
vt 0.726344 0.020624
vt 0.781900 0.002700
vt 0.729761 0.033746
vt 0.722900 0.049800
vt 0.781900 0.049800
vt 0.721793 0.053316
vt 0.722848 0.067800
vt 0.781900 0.067800
vt 0.721697 0.085369
vt 0.720174 0.089600
vt 0.781900 0.089600
vt 0.839900 0.089600
vt 0.839900 0.067800
vt 0.921500 0.077300
vt 0.921500 0.089700
vt 0.937600 0.077300
vt 0.937600 0.089700
vt 1.001000 0.055000
vt 0.937600 0.067700
vt 0.921500 0.067700
vt 0.921500 0.059800
vt 0.839900 0.049800
vt 0.839900 0.026800
vt 0.781900 0.026800
vt 0.839900 0.002700
vt 0.921500 0.014800
vt 0.921500 0.002700
vt 0.937600 0.002700
vt 0.937600 0.014800
vt 0.937600 0.026800
vt 0.937600 0.042300
vt 0.921500 0.026800
vt 0.921500 0.042300
vt 0.921500 0.049800
vt 0.937600 0.059800
vt 0.937600 0.049800
vt 0.728470 0.026800
vn 0.0528 -0.9969 0.0591
vn 0.0409 -0.6849 -0.7275
vn 0.4129 -0.4081 -0.8142
vn -0.4744 0.8800 -0.0253
vn 0.1865 0.9811 0.0517
vn -0.5475 0.8305 0.1024
vn -0.1877 0.1452 0.9714
vn 0.4705 0.3584 0.8063
vn 0.1039 -0.0364 0.9939
vn -0.1215 -0.4498 0.8848
vn 0.4043 -0.6301 0.6630
vn -0.0006 -0.9008 0.4343
vn -0.2535 -0.3446 0.9039
vn -0.2534 -0.3446 0.9039
vn -0.0458 -0.7902 0.6111
vn 0.2141 -0.8884 0.4060
vn 0.4156 0.2323 0.8794
vn 0.5034 -0.3760 0.7780
vn 0.4155 0.2323 0.8794
vn 0.5034 -0.3760 0.7779
vn 0.7192 0.4058 0.5640
vn 0.2301 0.4254 0.8753
vn 0.2300 0.4254 0.8753
vn -0.4721 -0.2842 0.8345
vn -0.5405 0.1708 0.8238
vn -0.8361 0.5465 0.0468
vn -0.8362 0.5465 0.0468
vn -0.1691 0.0636 -0.9835
vn 0.0173 0.1991 -0.9798
vn 0.1631 -0.4441 -0.8810
vn 0.6103 -0.2260 -0.7593
vn 0.5496 -0.5207 -0.6533
vn 0.8115 0.0942 0.5768
vn 0.8887 0.0944 0.4487
vn 0.8114 0.0942 0.5768
vn 0.8169 0.4413 0.3714
vn 0.4777 0.7454 0.4650
vn 0.4777 0.7454 0.4649
vn 0.8169 0.4414 0.3714
vn 0.3891 0.3796 -0.8393
vn 0.3891 0.3797 -0.8393
vn 0.8887 0.0943 0.4487
vn 0.6102 -0.2260 -0.7593
vn -0.2067 0.8535 -0.4783
vn -0.8361 0.5466 0.0468
vn -0.6996 0.6906 0.1834
vn 0.6502 0.1857 0.7367
vn 0.6502 0.1858 0.7367
vn 0.1921 0.4158 0.8890
vn 0.7203 0.4054 0.5629
vn 0.1921 0.4158 0.8889
vn 0.1921 0.4159 0.8889
vn -0.2067 0.8536 -0.4782
vn 0.4776 0.7454 0.4650
vn 0.3621 0.5088 -0.7810
usemtl 08___Default
s 1
f 32/1/1 27/2/2 1/3/3
f 29/4/4 30/5/5 3/6/6
f 31/7/7 34/8/8 4/9/9
f 34/8/8 33/10/10 4/9/9
f 32/11/1 1/12/11 4/9/9 33/10/10
f 1/12/11 5/13/12 4/9/9
f 4/9/9 5/13/12 6/14/13
f 6/14/14 5/13/12 7/15/15
f 5/13/12 8/16/16 7/15/15
f 7/15/15 8/16/16 9/17/17
f 8/16/16 10/18/18 9/17/19
f 10/18/20 11/19/21 9/17/17
f 11/19/21 12/20/22 9/17/17
f 9/17/19 12/20/23 7/15/15
f 12/20/23 13/21/24 7/15/15
f 7/15/15 13/21/24 6/14/13
f 13/21/24 14/22/25 6/14/13
f 14/22/25 15/23/26 6/14/13
f 6/14/13 15/23/26 4/9/9
f 4/9/9 15/23/26 3/6/6
f 15/23/27 16/24/28 3/6/6
f 3/6/6 16/24/28 2/25/29
f 2/25/29 16/24/28 1/3/3
f 1/3/3 16/24/28 5/26/30
f 16/24/28 17/27/31 5/26/30
f 5/26/30 17/27/31 8/28/32
f 8/28/32 17/27/31 10/29/33
f 17/27/31 18/30/34 10/29/33
f 10/29/35 18/30/34 11/19/21
f 18/30/34 19/31/36 11/19/21
f 11/19/21 19/31/36 20/32/37
f 20/32/38 19/31/39 21/33/40
f 19/31/36 18/30/34 21/33/41
f 18/30/42 17/27/43 21/33/41
f 17/27/31 16/24/28 21/33/41
f 21/33/41 16/24/28 22/34/44
f 16/24/28 15/23/26 22/34/44
f 22/34/44 15/23/45 23/35/46
f 15/23/26 14/22/25 23/35/46
f 23/35/46 14/22/25 24/36/47
f 14/22/25 13/21/24 24/36/48
f 13/21/24 12/20/22 24/36/48
f 12/20/22 11/19/21 24/36/48
f 24/36/48 11/19/21 25/37/49
f 11/19/50 20/32/37 25/37/51
f 20/32/37 23/35/46 25/37/52
f 25/37/51 23/35/46 24/36/48
f 23/35/46 20/32/37 22/34/53
f 22/34/44 20/32/54 21/33/41
f 3/6/6 30/5/5 31/7/7 4/9/9
f 2/25/29 28/38/55 29/4/4 3/6/6
f 1/3/3 27/2/2 28/38/55 2/25/29
f 34/8/8 31/7/7 30/5/5 29/4/4 28/38/55 27/2/2 32/1/1 33/10/10
